HIERARCHY
ROOT hip
{
  OFFSET -108.385 84.9404 -8.93976
  CHANNELS 6 Xposition Yposition Zposition Zrotation Xrotation Yrotation
  JOINT abdomen
  {
    OFFSET 0 20.6881 -0.73152
    CHANNELS 3 Zrotation Xrotation Yrotation
    JOINT chest
    {
      OFFSET 0 11.7043 -0.48768
      CHANNELS 3 Zrotation Xrotation Yrotation
      JOINT neck
      {
        OFFSET 0 22.1894 -2.19456
        CHANNELS 3 Zrotation Xrotation Yrotation
        JOINT head
        {
          OFFSET -0.24384 7.07133 1.2192
          CHANNELS 3 Zrotation Xrotation Yrotation
          JOINT leftEye
          {
            OFFSET 4.14528 8.04674 8.04672
            CHANNELS 3 Zrotation Xrotation Yrotation
            End Site
            {
              OFFSET 1 0 0
            }
          }
          JOINT rightEye
          {
            OFFSET -3.6576 8.04674 8.04672
            CHANNELS 3 Zrotation Xrotation Yrotation
            End Site
            {
              OFFSET 1 0 0
            }
          }
        }
      }
      JOINT rCollar
      {
        OFFSET -2.68224 19.2634 -4.8768
        CHANNELS 3 Zrotation Xrotation Yrotation
        JOINT rShldr
        {
          OFFSET -8.77824 -1.95073 1.46304
          CHANNELS 3 Zrotation Xrotation Yrotation
          JOINT rForeArm
          {
            OFFSET -28.1742 -1.7115 0.48768
            CHANNELS 3 Zrotation Xrotation Yrotation
            JOINT rHand
            {
              OFFSET -22.5879 0.773209 7.07136
              CHANNELS 3 Zrotation Xrotation Yrotation
              JOINT rThumb1
              {
                OFFSET -1.2192 -0.487915 3.41376
                CHANNELS 3 Zrotation Xrotation Yrotation
                JOINT rThumb2
                {
                  OFFSET -3.37035 -0.52449 3.41376
                  CHANNELS 3 Zrotation Xrotation Yrotation
                  End Site
                  {
                    OFFSET -1.78271 -1.18214 1.43049
                  }
                }
              }
              JOINT rIndex1
              {
                OFFSET -7.75947 0.938293 5.60832
                CHANNELS 3 Zrotation Xrotation Yrotation
                JOINT rIndex2
                {
                  OFFSET -2.54057 -0.884171 1.56538
                  CHANNELS 3 Zrotation Xrotation Yrotation
                  End Site
                  {
                    OFFSET -1.62519 -0.234802 1.16502
                  }
                }
              }
              JOINT rMid1
              {
                OFFSET -8.24714 1.18213 3.41376
                CHANNELS 3 Zrotation Xrotation Yrotation
                JOINT rMid2
                {
                  OFFSET -3.10165 -0.590103 1.0647
                  CHANNELS 3 Zrotation Xrotation Yrotation
                  End Site
                  {
                    OFFSET -2.48547 -0.328903 0.83742
                  }
                }
              }
              JOINT rRing1
              {
                OFFSET -8.82822 0.546677 1.51678
                CHANNELS 3 Zrotation Xrotation Yrotation
                JOINT rRing2
                {
                  OFFSET -2.60934 -0.819778 -0.0198488
                  CHANNELS 3 Zrotation Xrotation Yrotation
                  End Site
                  {
                    OFFSET -2.33842 -0.294052 0.168128
                  }
                }
              }
              JOINT rPinky1
              {
                OFFSET -8.27202 -0.0477905 -0.4584
                CHANNELS 3 Zrotation Xrotation Yrotation
                JOINT rPinky2
                {
                  OFFSET -1.82734 -0.647385 -0.700984
                  CHANNELS 3 Zrotation Xrotation Yrotation
                  End Site
                  {
                    OFFSET -1.69225 -0.51767 -0.607171
                  }
                }
              }
            }
          }
        }
      }
      JOINT lCollar
      {
        OFFSET 2.68224 19.2634 -4.8768
        CHANNELS 3 Zrotation Xrotation Yrotation
        JOINT lShldr
        {
          OFFSET 8.77824 -1.95073 1.46304
          CHANNELS 3 Zrotation Xrotation Yrotation
          JOINT lForeArm
          {
            OFFSET 28.1742 -1.7115 0.48768
            CHANNELS 3 Zrotation Xrotation Yrotation
            JOINT lHand
            {
              OFFSET 22.5879 0.773209 7.07136
              CHANNELS 3 Zrotation Xrotation Yrotation
              JOINT lThumb1
              {
                OFFSET 1.2192 -0.487915 3.41376
                CHANNELS 3 Zrotation Xrotation Yrotation
                JOINT lThumb2
                {
                  OFFSET 3.37035 -0.52449 3.41376
                  CHANNELS 3 Zrotation Xrotation Yrotation
                  End Site
                  {
                    OFFSET 1.78271 -1.18214 1.43049
                  }
                }
              }
              JOINT lIndex1
              {
                OFFSET 7.75947 0.938293 5.60832
                CHANNELS 3 Zrotation Xrotation Yrotation
                JOINT lIndex2
                {
                  OFFSET 2.54057 -0.884171 1.56538
                  CHANNELS 3 Zrotation Xrotation Yrotation
                  End Site
                  {
                    OFFSET 1.62519 -0.234802 1.16502
                  }
                }
              }
              JOINT lMid1
              {
                OFFSET 8.24714 1.18213 3.41376
                CHANNELS 3 Zrotation Xrotation Yrotation
                JOINT lMid2
                {
                  OFFSET 3.10165 -0.590103 1.0647
                  CHANNELS 3 Zrotation Xrotation Yrotation
                  End Site
                  {
                    OFFSET 2.48547 -0.328903 0.83742
                  }
                }
              }
              JOINT lRing1
              {
                OFFSET 8.82822 0.546677 1.51678
                CHANNELS 3 Zrotation Xrotation Yrotation
                JOINT lRing2
                {
                  OFFSET 2.60934 -0.819778 -0.0198488
                  CHANNELS 3 Zrotation Xrotation Yrotation
                  End Site
                  {
                    OFFSET 2.33842 -0.294052 0.168128
                  }
                }
              }
              JOINT lPinky1
              {
                OFFSET 8.27202 -0.0477905 -0.4584
                CHANNELS 3 Zrotation Xrotation Yrotation
                JOINT lPinky2
                {
                  OFFSET 1.82734 -0.647385 -0.700984
                  CHANNELS 3 Zrotation Xrotation Yrotation
                  End Site
                  {
                    OFFSET 1.69225 -0.51767 -0.607171
                  }
                }
              }
            }
          }
        }
      }
    }
  }
  JOINT rButtock
  {
    OFFSET -8.77824 4.35084 1.2192
    CHANNELS 3 Zrotation Xrotation Yrotation
    JOINT rThigh
    {
      OFFSET 0 -1.70687 -2.19456
      CHANNELS 3 Zrotation Xrotation Yrotation
      JOINT rShin
      {
        OFFSET 0 -36.8199 0.73152
        CHANNELS 3 Zrotation Xrotation Yrotation
        JOINT rFoot
        {
          OFFSET 0.73152 -45.1104 -5.12064
          CHANNELS 3 Zrotation Xrotation Yrotation
          End Site
          {
            OFFSET -1.1221 -3.69964 12.103
          }
        }
      }
    }
  }
  JOINT lButtock
  {
    OFFSET 8.77824 4.35084 1.2192
    CHANNELS 3 Zrotation Xrotation Yrotation
    JOINT lThigh
    {
      OFFSET 0 -1.70687 -2.19456
      CHANNELS 3 Zrotation Xrotation Yrotation
      JOINT lShin
      {
        OFFSET 0 -36.8199 0.73152
        CHANNELS 3 Zrotation Xrotation Yrotation
        JOINT lFoot
        {
          OFFSET -0.73152 -45.1104 -5.12064
          CHANNELS 3 Zrotation Xrotation Yrotation
          End Site
          {
            OFFSET 1.1221 -3.69964 12.103
          }
        }
      }
    }
  }
}
MOTION
Frames:	5
Frame Time:	0.00833333
-143.745 85.0966 -16.2033 -0.215667 -0.00122102 0.00365413 0.283894 -0.00291392 0.00816073 0.0784592 -0.004733 0.0135944 3.07317e-015 7.95139e-016 -2.17421e-017 9.38015e-015 9.54166e-015 -7.92033e-017 -0 0 0 -0 0 0 1.63875e-015 8.73565e-018 9.93923e-017 3.4958e-014 5.59082e-016 7.95139e-016 5.72848e-013 -1.65389e-013 -2.54444e-014 6.54769e-012 1.99406e-013 -2.22639e-014 1.54464e-011 6.78689e-014 -8.26944e-014 2.66701e-011 1.11319e-013 -1.54257e-013 1.54515e-011 6.87795e-014 -9.85972e-014 7.73091 5.47488 0.417314 1.54448e-011 6.80837e-014 -8.90555e-014 2.90554 0.965183 0.102902 1.54502e-011 6.7388e-014 -9.22361e-014 10.2786 0.731801 0.0259123 1.54422e-011 7.07673e-014 -8.5875e-014 2.22167 -0.733487 -0.20892 1.5419e-015 9.51216e-018 -9.93923e-017 3.10561e-014 4.41053e-016 -1.19271e-015 5.7081e-013 1.75328e-013 1.90833e-014 6.54946e-012 -1.4879e-013 -6.04305e-014 1.54486e-011 5.30303e-014 -8.90555e-014 2.66912e-011 9.54166e-014 -1.56642e-013 1.54404e-011 5.28767e-014 -8.5875e-014 -7.73091 5.47488 -0.417314 1.54492e-011 5.20816e-014 -9.85972e-014 -2.90554 0.965183 -0.102902 1.54405e-011 5.31749e-014 -8.98507e-014 -10.2786 0.731801 -0.0259123 1.54493e-011 5.48646e-014 -8.5875e-014 -2.22167 -0.733487 0.20892 -2.03217e-016 0 -3.88251e-019 0.668905 -3.85853 -0.0572478 -0.00341779 1.43794 -0.0274395 -0.455247 2.42105 0.100329 2.03217e-016 0 3.88251e-019 -0.234832 -2.72419 0.0299389 0.00662653 -0.616662 0.0579733 0.449447 3.34127 -0.117942 
-138.321 83.3043 -22.1944 -6.30953 -6.43738 24.513 0.426286 -1.02398 0.722202 0.376383 -0.156805 0.225742 -1.29922 -2.69662 -0.169585 4.44774 4.193 -0.0807428 -0 0 0 -0 0 0 -6.53609e-015 -3.44971e-013 5.32487e-015 19.7389 7.30459 -0.678972 -6.18692 -3.35422 9.00868 0.0135396 -2.58178 -0.361516 -9.31567e-011 -1.72077e-010 -3.24457e-011 -1.62672e-010 -2.96954e-010 -5.68555e-011 -9.31535e-011 -1.72076e-010 -3.24608e-011 7.73091 5.47488 0.417314 -9.31586e-011 -1.72076e-010 -3.24502e-011 2.90554 0.965183 0.102902 -9.31547e-011 -1.72077e-010 -3.24516e-011 10.2786 0.731801 0.0259123 -9.31616e-011 -1.72074e-010 -3.24424e-011 2.22167 -0.733487 -0.20892 -6.63382e-015 -3.44972e-013 5.12375e-015 -20.5505 9.82504 -0.405113 7.46159 -4.43859 -10.2958 -0.100357 -7.03701 0.962255 1.88163e-010 -1.60994e-010 -1.81567e-010 3.30433e-010 -2.75678e-010 -3.10431e-010 1.88157e-010 -1.60992e-010 -1.81557e-010 -7.73091 5.47488 -0.417314 1.88164e-010 -1.60994e-010 -1.81571e-010 -2.90554 0.965183 -0.102902 1.88155e-010 -1.60992e-010 -1.81564e-010 -10.2786 0.731801 -0.0259123 1.88164e-010 -1.60991e-010 -1.8156e-010 -2.22167 -0.733487 0.20892 -2.03217e-016 0 -3.88251e-019 0.430915 -7.02095 3.28106 0.0255476 7.11674 0.112147 -1.50712 -0.980453 -9.69424 2.03217e-016 0 3.88251e-019 1.1912 -7.13076 -6.0422 0.000253239 6.10004 -0.0570785 0.941628 0.58578 5.23946 
-138.324 83.3046 -22.1411 -7.55172 -9.36144 51.0221 0.602307 -2.1034 1.47803 0.691623 -0.317414 0.450123 -2.69233 -5.54591 -0.351113 9.16526 8.6215 -0.168693 -0 0 0 -0 0 0 -1.58538e-014 -7.42325e-013 1.13835e-014 40.7983 14.9728 -1.44932 -11.5378 -6.56892 18.5589 -0.00770134 -5.30679 -0.745582 -2.19346e-010 -3.94921e-010 -5.54122e-011 -3.82841e-010 -6.81588e-010 -9.74884e-011 -2.19345e-010 -3.94919e-010 -5.54267e-011 7.73091 5.47488 0.417314 -2.19348e-010 -3.94919e-010 -5.54148e-011 2.90554 0.965183 0.102902 -2.19346e-010 -3.94919e-010 -5.54143e-011 10.2786 0.731801 0.0259123 -2.19352e-010 -3.94916e-010 -5.54019e-011 2.22167 -0.733487 -0.20892 -1.59527e-014 -7.42329e-013 1.11785e-014 -42.1068 20.1653 -0.853048 13.6059 -8.61734 -21.3324 0.0581909 -14.4702 2.02907 3.73514e-010 -3.61404e-010 -4.05627e-010 6.57248e-010 -6.19178e-010 -6.94013e-010 3.73508e-010 -3.61401e-010 -4.05608e-010 -7.73091 5.47488 -0.417314 3.73514e-010 -3.61403e-010 -4.05625e-010 -2.90554 0.965183 -0.102902 3.73505e-010 -3.61402e-010 -4.05619e-010 -10.2786 0.731801 -0.0259123 3.73515e-010 -3.61402e-010 -4.05616e-010 -2.22167 -0.733487 0.20892 -2.03217e-016 0 -3.88251e-019 0.582891 -10.3137 6.86653 0.0253884 13.1173 0.26472 -3.859 -4.32296 -20.1057 2.03217e-016 0 3.88251e-019 1.67079 -11.5999 -12.6138 0.0234755 13.2091 -0.183023 2.01812 -2.28466 10.8961 
-138.328 83.3063 -22.0943 -6.91836 -6.05714 74.1265 0.787494 -3.06419 2.15302 0.97561 -0.460923 0.650055 -3.94595 -8.08959 -0.5133 13.3794 12.5789 -0.247521 -0 0 0 -0 0 0 -2.28858e-014 -1.03493e-012 1.57758e-014 59.7704 21.901 -2.17761 -15.4941 -9.06933 27.3492 -0.0578813 -7.74409 -1.09342 -3.10363e-010 -5.16368e-010 -9.71716e-011 -5.41356e-010 -8.91083e-010 -1.70258e-010 -3.10364e-010 -5.16365e-010 -9.71853e-011 7.73091 5.47488 0.417314 -3.10365e-010 -5.16366e-010 -9.71725e-011 2.90554 0.965183 0.102902 -3.10365e-010 -5.16365e-010 -9.71704e-011 10.2786 0.731801 0.0259123 -3.10369e-010 -5.16363e-010 -9.71554e-011 2.22167 -0.733487 -0.20892 -2.29853e-014 -1.03494e-012 1.557e-014 -61.1823 29.4688 -1.3755 17.7766 -11.5961 -31.5079 0.450961 -21.0863 3.07082 5.33593e-010 -4.83087e-010 -5.44524e-010 9.37915e-010 -8.27224e-010 -9.30979e-010 5.33589e-010 -4.83082e-010 -5.44498e-010 -7.73091 5.47488 -0.417314 5.33593e-010 -4.83085e-010 -5.44517e-010 -2.90554 0.965183 -0.102902 5.33584e-010 -4.83084e-010 -5.44512e-010 -10.2786 0.731801 -0.0259123 5.33595e-010 -4.83084e-010 -5.44509e-010 -2.22167 -0.733487 0.20892 -2.03217e-016 0 -3.88251e-019 1.08079 -13.1778 10.1536 -0.00332864 18.4739 0.409831 -6.96251 -6.82118 -29.5082 2.03217e-016 0 3.88251e-019 1.20773 -15.2523 -18.7285 0.0720966 19.5332 -0.303684 3.45563 -4.728 16.009 
-138.311 83.3124 -22.0681 -7.35738 -0.417333 89.104 0.941531 -3.73023 2.62327 1.17908 -0.561705 0.788849 -4.81615 -9.86953 -0.622757 16.3086 15.3586 -0.298361 -0 0 0 -0 0 0 -2.42031e-014 -1.06566e-012 1.60022e-014 73.1095 26.9921 -2.66528 -17.9717 -10.6562 33.9566 -0.111112 -9.46333 -1.34233 -3.13448e-010 -3.84326e-010 -1.85913e-010 -5.45734e-010 -6.62732e-010 -3.2337e-010 -3.1345e-010 -3.84322e-010 -1.85926e-010 7.73091 5.47488 0.417314 -3.1345e-010 -3.84323e-010 -1.85913e-010 2.90554 0.965183 0.102902 -3.1345e-010 -3.84322e-010 -1.8591e-010 10.2786 0.731801 0.0259123 -3.13454e-010 -3.8432e-010 -1.85894e-010 2.22167 -0.733487 -0.20892 -2.43019e-014 -1.06566e-012 1.58034e-014 -74.3519 36.1842 -1.96044 20.1147 -13.1568 -38.9592 0.883742 -25.6831 3.87539 6.30496e-010 -4.07949e-010 -4.70512e-010 1.10321e-009 -6.96637e-010 -8.01405e-010 6.30492e-010 -4.07944e-010 -4.70484e-010 -7.73091 5.47488 -0.417314 6.30495e-010 -4.07947e-010 -4.70503e-010 -2.90554 0.965183 -0.102902 6.30487e-010 -4.07945e-010 -4.70499e-010 -10.2786 0.731801 -0.0259123 6.30498e-010 -4.07946e-010 -4.70496e-010 -2.22167 -0.733487 0.20892 -2.03217e-016 0 -3.88251e-019 1.64623 -15.12 12.5268 -0.0410832 22.221 0.519085 -9.6343 -8.17827 -36.1351 2.03217e-016 0 3.88251e-019 0.399474 -17.4973 -23.2137 0.122878 23.8949 -0.394547 4.72431 -6.31195 19.687 
